PathFileType	4	(X/Y/Z)	6_coords_data.trc
DataRate	CameraRate	NumFrames	NumMarkers	Units	OrigDataRate	OrigDataStartFrame	OrigNumFrames
30.0	30.0	9	21	m	30.0	1	82
Frame#	Time	THUMB_TIP	THUMB_IP	THUMB_MCP	THUMB_CMC	INDEX_TIP	INDEX_DIP	INDEX_PIP	INDEX_MCP	MIDDLE_TIP	MIDDLE_DIP	MIDDLE_PIP	MIDDLE_MCP	RING_TIP	RING_DIP	RING_PIP	RING_MCP	PINKY_TIP	PINKY_DIP	PINKY_PIP	PINKY_MCP	WRIST
X1	Y1	Z1	X2	Y2	Z2	X3	Y3	Z3	X4	Y4	Z4	X5	Y5	Z5	X6	Y6	Z6	X7	Y7	Z7	X8	Y8	Z8	X9	Y9	Z9	X10	Y10	Z10	X11	Y11	Z11	X12	Y12	Z12	X13	Y13	Z13	X14	Y14	Z14	X15	Y15	Z15	X16	Y16	Z16	X17	Y17	Z17	X18	Y18	Z18	X19	Y19	Z19	X20	Y20	Z20	X21	Y21	Z21
0	0.0	0.010625100135803223	-0.12204900360107422	0.9991320190429688	0.012588899612426757	-0.0963863983154297	1.0136300048828124	0.0038866701126098633	-0.07220510101318359	1.03543994140625	0.00026109200716018606	-0.038450199127197264	1.0509100341796875	0.014878100395202636	-0.048474201202392576	1.0211300048828125	0.03140539932250976	-0.04988650131225586	1.006	0.030315900802612306	-0.05688330078125	0.9862860107421875	-0.01062969970703125	-0.05649689865112305	0.991593994140625	0.016358400344848634	-0.03441210174560547	1.0280400390625	0.02823200035095215	-0.032493900299072266	1.0136099853515625	0.03237009811401367	-0.03470600128173828	0.9858200073242187	-0.013686200141906739	-0.033323501586914064	0.9835650024414062	0.0049760198593139645	-0.014847900390625	1.0173599853515625	0.023655500411987305	-0.014838199615478515	1.0128900146484374	0.031740800857543945	-0.012899299621582032	0.988843017578125	-0.010313400268554688	-0.00806466007232666	0.9864719848632812	0.009621150016784668	0.00015607500076293901	1.0201900024414063	0.023318599700927735	0.0012291100025177	1.01222998046875	0.027895999908447267	0.005375140190124512	0.99352197265625	-0.003241549968719482	0.012273099899291992	0.9924929809570312	-0.018682899475097655	-0.008741270065307618	1.064800048828125
1	0.03333333333333333	0.010743100166320801	-0.12149199676513672	0.9988499755859375	0.012728799819946289	-0.0960519027709961	1.012760009765625	0.004793469905853272	-0.07418180084228515	1.034449951171875	0.0017516299486160269	-0.0380796012878418	1.048	0.011532099723815917	-0.04797919845581055	1.0201199951171875	0.02789959907531738	-0.04918539810180664	1.0094199829101562	0.03066119956970215	-0.05612329864501953	0.9854180297851562	-0.010193499565124511	-0.05620669937133789	0.9909199829101563	0.015919699668884277	-0.033339500427246094	1.0226900024414063	0.025951400756835937	-0.03145439910888672	1.0140700073242188	0.031887100219726565	-0.03429410171508789	0.985073974609375	-0.012812299728393555	-0.03230030059814453	0.9828740234375	0.011014300346374512	-0.015944000244140624	1.0234099731445312	0.023569799423217772	-0.014161800384521485	1.0146599731445312	0.03212969970703125	-0.013352700233459473	0.988198974609375	-0.009925370216369628	-0.00787110996246338	0.9846160278320313	0.009158260345458984	0.0009258490204811091	1.0213200073242188	0.024100400924682616	0.001722689986228942	1.0125599975585937	0.02761039924621582	0.005722000122070313	0.9927230224609375	-0.0032322099208831776	0.0123774995803833	0.9922990112304687	-0.018951900482177736	-0.008290129661560059	1.0655899658203125
2	0.06666666666666667	0.010564599990844727	-0.12153800201416015	0.998948974609375	0.01259220027923584	-0.09608589935302735	1.0128800048828126	0.004685870170593262	-0.07412030029296875	1.03452001953125	0.0016810200214385982	-0.038001399993896484	1.0480699462890626	0.011716400146484375	-0.04788219833374024	1.0201900024414063	0.02794960021972656	-0.049143199920654294	1.0092999877929687	0.030547500610351563	-0.05618719863891602	0.9851729736328125	-0.010268199920654296	-0.056123401641845705	0.9908070068359375	0.015968500137329103	-0.03328499984741211	1.0225800170898438	0.02597949981689453	-0.03146010017395019	1.0139600219726563	0.031800100326538086	-0.034229900360107424	0.9849509887695312	-0.012877300262451171	-0.03222760009765625	0.9827990112304688	0.010932600021362305	-0.015793100357055664	1.0239600219726563	0.023591800689697264	-0.014128299713134765	1.0145700073242188	0.03206909942626953	-0.013308199882507324	0.9880770263671875	-0.009988439559936524	-0.00780797004699707	0.9845759887695312	0.009122090339660644	0.0009572340250015251	1.021260009765625	0.02400469970703125	0.0017378699779510489	1.0123300170898437	0.027557600021362306	0.005760449886322022	0.9925980224609375	-0.003388170003890991	0.01245740032196045	0.9923720092773437	-0.018965599060058593	-0.008232489585876464	1.0655899658203125
3	0.1	0.010890399932861328	-0.12136100006103516	0.9988150024414062	0.012871600151062012	-0.096002197265625	1.0126799926757812	0.004745480060577393	-0.07401309967041016	1.0344100341796876	0.001787520051002502	-0.037923900604248044	1.0479100341796874	0.011842100143432618	-0.04781460189819336	1.0205900268554688	0.02796980094909668	-0.04909270095825195	1.009280029296875	0.03048270034790039	-0.05615399932861328	0.9850070190429687	-0.0104197998046875	-0.0560984001159668	0.9908460083007813	0.015928500175476073	-0.03332580184936523	1.0223200073242187	0.02601490020751953	-0.03135169982910156	1.0139099731445314	0.03188509941101074	-0.034116901397705075	0.9849760131835937	-0.012822699546813966	-0.03221490097045898	0.9827620239257813	0.010912699699401856	-0.01575850009918213	1.0238599853515624	0.023627899169921876	-0.014110400199890136	1.0143800048828124	0.03209769821166992	-0.013260600090026855	0.9880180053710937	-0.009948040008544922	-0.007796659946441651	0.984531982421875	0.009178839683532714	0.001031790018081665	1.0212100219726563	0.024135599136352538	0.001795989990234375	1.0124099731445313	0.027582300186157226	0.0057786498069763185	0.992572021484375	-0.003403239965438842	0.012483400344848633	0.9923889770507812	-0.01897480010986328	-0.008169219970703126	1.065530029296875
4	0.13333333333333333	0.011059000015258788	-0.12130799865722657	0.998822998046875	0.013003700256347657	-0.095931396484375	1.012760009765625	0.004808899879455567	-0.07404509735107422	1.0343900146484375	0.001729879975318908	-0.03784199905395508	1.04793994140625	0.011817700386047363	-0.04781380081176758	1.0197899780273438	0.028131000518798827	-0.04906039810180664	1.0093300170898438	0.03072249984741211	-0.05607270050048828	0.9852349853515625	-0.01017300033569336	-0.05601699829101563	0.9907440185546875	0.016043500900268556	-0.03321870040893555	1.0225999755859374	0.026156700134277344	-0.031321699142456055	1.01397998046875	0.032034099578857424	-0.03408769989013672	0.9850449829101563	-0.012673000335693359	-0.03220690155029297	0.9826170043945313	0.011055600166320801	-0.01567329978942871	1.0239099731445314	0.023738000869750978	-0.01401550006866455	1.0145900268554688	0.032264598846435545	-0.013213700294494628	0.9880919799804687	-0.009802709579467774	-0.007737180233001709	0.9845369873046875	0.009273889541625977	0.0010508699417114248	1.0213300170898438	0.02413170051574707	0.001826179981231689	1.012239990234375	0.02770210075378418	0.005854129791259766	0.9926640014648438	-0.003041409969329834	0.012450400352478028	0.9921849975585938	-0.01883849906921387	-0.00815800952911377	1.0654100341796875
5	0.16666666666666666	0.011243900299072266	-0.12124600219726563	0.9988880004882813	0.013131500244140625	-0.09587059783935546	1.0127899780273437	0.004915649890899658	-0.0739529037475586	1.0344300537109374	0.001985820055007934	-0.0377140998840332	1.048	0.011795599937438965	-0.04774909973144531	1.0200900268554687	0.0282096004486084	-0.0489005012512207	1.009239990234375	0.030846799850463867	-0.055986400604248046	0.9852360229492187	-0.010107600212097168	-0.0559474983215332	0.99072802734375	0.015995200157165528	-0.03315090179443359	1.0226599731445312	0.02614889907836914	-0.031232500076293947	1.0138800048828125	0.032239601135253905	-0.033996601104736325	0.9850189819335937	-0.01258530044555664	-0.03209170150756836	0.9827039794921875	0.011827799797058105	-0.01580869960784912	1.02372998046875	0.02384429931640625	-0.013925100326538086	1.0145	0.03238309860229492	-0.013115500450134277	0.9880679931640625	-0.009699350357055663	-0.007649069786071778	0.9845189819335938	0.009361720085144043	0.001101430058479309	1.0213300170898438	0.024325199127197265	0.0018985600471496582	1.01222998046875	0.027783199310302733	0.005921770095825196	0.9925819702148437	-0.003185480117797851	0.01259280014038086	0.9923419799804688	-0.018744600296020507	-0.00813484001159668	1.0653499755859375
6	0.2	0.011688599586486817	-0.121052001953125	0.9987520141601562	0.013488800048828124	-0.09569650268554687	1.0126400146484376	0.005181509971618653	-0.07383979797363281	1.0343199462890624	0.002024450063705444	-0.037730899810791016	1.0478399658203126	0.012095899581909179	-0.04764310073852539	1.0198599853515624	0.02837369918823242	-0.04881169891357422	1.0091799926757812	0.030924999237060546	-0.055852401733398435	0.984989990234375	-0.010030900001525879	-0.05584769821166992	0.9907960205078125	0.01607379913330078	-0.03308620071411133	1.0222899780273438	0.026371599197387696	-0.03112019920349121	1.0137899780273438	0.03218470001220703	-0.03391970062255859	0.9847069702148438	-0.012581000328063965	-0.03201290130615234	0.9826959838867187	0.011293299674987793	-0.015506199836730957	1.02397998046875	0.023959299087524415	-0.013843500137329101	1.0145	0.032461898803710934	-0.012965299606323243	0.987905029296875	-0.009633990287780761	-0.007543920040130615	0.9845330200195312	0.009529210090637208	0.001189700007438659	1.021260009765625	0.02439340019226074	0.002038059949874878	1.0123800048828124	0.02784339904785156	0.006063139915466308	0.9925460205078125	-0.003006750106811523	0.012673000335693359	0.9922249755859375	-0.018675500869750977	-0.008050840377807617	1.0654300537109376
7	0.23333333333333334	0.012000499725341797	-0.12093499755859374	0.9985440063476563	0.013737500190734863	-0.095535400390625	1.0125999755859374	0.00532056999206543	-0.07381179809570312	1.034239990234375	0.0020580899715423578	-0.037567401885986326	1.04777001953125	0.0120802001953125	-0.047637699127197265	1.0190900268554688	0.02851420021057129	-0.0487042007446289	1.009010009765625	0.03101259994506836	-0.05573369979858398	0.9850380249023437	-0.009648590087890626	-0.055832199096679684	0.99060498046875	0.016247800827026367	-0.03292879867553711	1.0224199829101563	0.026421300888061522	-0.03108530044555664	1.0137000122070312	0.032317501068115234	-0.03377479934692383	0.9847559814453125	-0.012447299957275391	-0.031944299697875975	0.9826409912109375	0.011459600448608399	-0.015454799652099609	1.024010009765625	0.02400740051269531	-0.013782699584960938	1.0144299926757812	0.032568099975585935	-0.012801899909973144	0.9881290283203125	-0.009599760055541992	-0.007495200157165528	0.9843839721679688	0.0095408296585083	0.001229339957237243	1.0212000122070313	0.024400100708007813	0.002076630115509033	1.0122999877929688	0.027905799865722655	0.006135570049285889	0.9926909790039062	-0.003015140056610107	0.012766500473022462	0.9921619873046875	-0.018645200729370117	-0.008028599739074707	1.0653599853515625
8	0.26666666666666666	0.012327699661254883	-0.12086399841308594	0.9985280151367187	0.01394849967956543	-0.0954761962890625	1.0125599975585937	0.005458489894866943	-0.07367279815673829	1.034280029296875	0.002317719936370849	-0.037481300354003905	1.04777001953125	0.012190899848937987	-0.04753969955444336	1.0198800048828125	0.028516700744628906	-0.04876020050048828	1.008989990234375	0.03105270004272461	-0.05574980163574219	0.9850150146484375	-0.009862259864807129	-0.0557775993347168	0.9906799926757812	0.016105199813842775	-0.03299530029296875	1.0222100219726562	0.026416200637817383	-0.031069799423217772	1.0136199951171876	0.032534698486328124	-0.0336870002746582	0.98481298828125	-0.012475000381469727	-0.031947999954223635	0.9825910034179688	0.011607999801635743	-0.015458399772644044	1.0237100219726563	0.02409309959411621	-0.013760800361633302	1.0144299926757812	0.032618900299072266	-0.012883700370788575	0.9878380126953125	-0.009500410079956055	-0.007475069999694824	0.984427978515625	0.009604330062866212	0.001269019961357116	1.0211400146484375	0.024493900299072266	0.0020723600387573243	1.012260009765625	0.02795590019226074	0.006094880104064941	0.9924810180664062	-0.0028842699527740477	0.01275119972229004	0.992093017578125	-0.018504899978637697	-0.007982150077819824	1.065280029296875
